<svg width="86" height="20" viewBox="0 0 86 20" fill="none" xmlns="http://www.w3.org/2000/svg">
<path d="M3.212 13.204C2.812 13.204 2.444 13.124 2.108 12.964C1.78 12.804 1.496 12.576 1.256 12.28C1.016 11.984 0.832 11.628 0.704 11.212C0.576 10.788 0.512 10.316 0.512 9.796C0.512 9.044 0.608 8.3 0.8 7.564C1 6.828 1.276 6.124 1.628 5.452C1.98 4.78 2.396 4.164 2.876 3.604C3.356 3.044 3.88 2.556 4.448 2.14C5.024 1.716 5.628 1.392 6.26 1.168C6.892 0.935999 7.54 0.819999 8.204 0.819999C8.604 0.819999 8.976 0.863999 9.32 0.951999C9.664 1.032 9.98 1.152 10.268 1.312C10.564 1.472 10.82 1.672 11.036 1.912L11.288 1.144C11.328 1.032 11.392 0.951999 11.48 0.904C11.576 0.847999 11.708 0.819999 11.876 0.819999C12.06 0.819999 12.196 0.847999 12.284 0.904C12.372 0.96 12.392 1.052 12.344 1.18L9.464 9.928C9.336 10.328 9.236 10.676 9.164 10.972C9.092 11.268 9.056 11.516 9.056 11.716C9.056 11.908 9.096 12.056 9.176 12.16C9.264 12.256 9.4 12.304 9.584 12.304C9.736 12.304 9.836 12.352 9.884 12.448C9.94 12.536 9.952 12.64 9.92 12.76C9.888 12.872 9.824 12.972 9.728 13.06C9.632 13.156 9.508 13.204 9.356 13.204C9.036 13.204 8.772 13.14 8.564 13.012C8.356 12.884 8.208 12.684 8.12 12.412C8.04 12.132 8.024 11.78 8.072 11.356C8.128 10.924 8.252 10.412 8.444 9.82L8.744 8.884C8.272 9.596 7.8 10.22 7.328 10.756C6.856 11.292 6.388 11.744 5.924 12.112C5.46 12.472 5 12.744 4.544 12.928C4.088 13.112 3.644 13.204 3.212 13.204ZM1.616 9.832C1.616 10.224 1.66 10.568 1.748 10.864C1.844 11.152 1.976 11.396 2.144 11.596C2.312 11.788 2.504 11.936 2.72 12.04C2.936 12.136 3.168 12.184 3.416 12.184C3.792 12.184 4.18 12.092 4.58 11.908C4.988 11.716 5.404 11.436 5.828 11.068C6.26 10.692 6.696 10.236 7.136 9.7C7.584 9.156 8.036 8.536 8.492 7.84C8.956 7.136 9.412 6.36 9.86 5.512L10.688 2.968C10.416 2.584 10.068 2.3 9.644 2.116C9.22 1.932 8.684 1.84 8.036 1.84C7.492 1.84 6.96 1.948 6.44 2.164C5.92 2.372 5.42 2.672 4.94 3.064C4.46 3.448 4.016 3.896 3.608 4.408C3.208 4.912 2.856 5.464 2.552 6.064C2.256 6.656 2.024 7.272 1.856 7.912C1.696 8.552 1.616 9.192 1.616 9.832ZM9.371 13.204C9.219 13.204 9.119 13.156 9.071 13.06C9.023 12.972 9.015 12.872 9.047 12.76C9.071 12.64 9.135 12.536 9.239 12.448C9.335 12.352 9.459 12.304 9.611 12.304C9.835 12.304 10.119 12.208 10.463 12.016C10.807 11.824 11.187 11.56 11.603 11.224C12.019 10.88 12.451 10.484 12.899 10.036C13.355 9.588 13.803 9.104 14.243 8.584C14.691 8.056 15.111 7.516 15.503 6.964C15.903 6.412 16.255 5.864 16.559 5.32C16.863 4.776 17.103 4.256 17.279 3.76C17.455 3.256 17.543 2.8 17.543 2.392C17.543 2.24 17.591 2.128 17.687 2.056C17.791 1.976 17.911 1.936 18.047 1.936C18.183 1.936 18.299 1.976 18.395 2.056C18.499 2.128 18.551 2.24 18.551 2.392C18.551 2.776 18.471 3.204 18.311 3.676C18.159 4.14 17.943 4.632 17.663 5.152C17.391 5.672 17.071 6.2 16.703 6.736C16.335 7.264 15.935 7.792 15.503 8.32C15.079 8.848 14.639 9.352 14.183 9.832C13.727 10.312 13.271 10.76 12.815 11.176C12.359 11.584 11.919 11.94 11.495 12.244C11.071 12.548 10.679 12.784 10.319 12.952C9.959 13.12 9.643 13.204 9.371 13.204ZM14.087 13.204C13.639 13.204 13.283 13.068 13.019 12.796C12.763 12.516 12.619 12.128 12.587 11.632C12.555 11.128 12.647 10.54 12.863 9.868L14.975 3.448C15.271 2.512 15.599 1.832 15.959 1.408C16.327 0.983999 16.767 0.771999 17.279 0.771999C17.535 0.771999 17.755 0.839999 17.939 0.975999C18.131 1.112 18.279 1.3 18.383 1.54C18.495 1.78 18.551 2.064 18.551 2.392C18.551 2.544 18.499 2.656 18.395 2.728C18.299 2.8 18.183 2.836 18.047 2.836C17.911 2.836 17.791 2.8 17.687 2.728C17.591 2.656 17.543 2.544 17.543 2.392C17.543 2.256 17.531 2.14 17.507 2.044C17.483 1.948 17.443 1.872 17.387 1.816C17.331 1.76 17.247 1.732 17.135 1.732C17.007 1.732 16.883 1.788 16.763 1.9C16.651 2.004 16.531 2.2 16.403 2.488C16.275 2.768 16.119 3.168 15.935 3.688L13.847 10.072C13.687 10.56 13.599 10.972 13.583 11.308C13.575 11.644 13.635 11.896 13.763 12.064C13.891 12.224 14.075 12.304 14.315 12.304C14.427 12.304 14.511 12.352 14.567 12.448C14.623 12.536 14.643 12.64 14.627 12.76C14.611 12.872 14.559 12.972 14.471 13.06C14.383 13.156 14.255 13.204 14.087 13.204ZM14.0937 13.204C13.9417 13.204 13.8417 13.156 13.7937 13.06C13.7377 12.972 13.7257 12.872 13.7577 12.76C13.7817 12.64 13.8417 12.536 13.9377 12.448C14.0337 12.352 14.1577 12.304 14.3097 12.304C14.6377 12.304 15.0297 12.212 15.4857 12.028C15.9337 11.844 16.4377 11.568 16.9977 11.2C17.0937 11.136 17.1817 11.124 17.2617 11.164C17.3417 11.204 17.4017 11.272 17.4417 11.368C17.4897 11.464 17.5057 11.564 17.4897 11.668C17.4737 11.772 17.4217 11.856 17.3337 11.92C16.8617 12.232 16.4257 12.484 16.0257 12.676C15.6177 12.86 15.2537 12.992 14.9337 13.072C14.6057 13.16 14.3257 13.204 14.0937 13.204ZM16.9977 11.284C17.1417 11.196 17.2817 11.104 17.4177 11.008C17.5537 10.912 17.6897 10.816 17.8257 10.72C18.1857 10.456 18.5097 10.184 18.7977 9.904C19.0857 9.624 19.3137 9.348 19.4817 9.076C19.6577 8.804 19.7457 8.552 19.7457 8.32C19.7457 8.136 19.7057 7.992 19.6257 7.888C19.5457 7.784 19.4257 7.732 19.2657 7.732C19.1537 7.732 19.0697 7.684 19.0137 7.588C18.9657 7.492 18.9497 7.38 18.9657 7.252C18.9817 7.124 19.0337 7.012 19.1217 6.916C19.2177 6.82 19.3497 6.772 19.5177 6.772C19.7577 6.772 19.9777 6.824 20.1777 6.928C20.3777 7.024 20.5337 7.168 20.6457 7.36C20.7657 7.544 20.8257 7.768 20.8257 8.032C20.8257 8.392 20.7097 8.772 20.4777 9.172C20.2537 9.564 19.9537 9.956 19.5777 10.348C19.2017 10.732 18.7817 11.092 18.3177 11.428C18.1657 11.532 18.0097 11.64 17.8497 11.752C17.6897 11.856 17.5297 11.956 17.3697 12.052L16.9977 11.284ZM18.4777 13.204C18.1977 13.204 17.9537 13.152 17.7457 13.048C17.5377 12.944 17.3617 12.804 17.2177 12.628C17.0737 12.444 16.9617 12.24 16.8817 12.016C16.7937 11.792 16.7297 11.56 16.6897 11.32C16.6497 11.072 16.6297 10.836 16.6297 10.612C16.6297 10.268 16.6657 9.92 16.7377 9.568C16.8017 9.208 16.9057 8.864 17.0497 8.536C17.1857 8.2 17.3697 7.9 17.6017 7.636C17.8257 7.372 18.1017 7.164 18.4297 7.012C18.7497 6.852 19.1217 6.772 19.5457 6.772C19.6177 6.772 19.6697 6.82 19.7017 6.916C19.7337 7.012 19.7417 7.124 19.7257 7.252C19.7097 7.38 19.6657 7.492 19.5937 7.588C19.5217 7.684 19.4177 7.732 19.2817 7.732C19.0577 7.732 18.8617 7.792 18.6937 7.912C18.5177 8.032 18.3657 8.192 18.2377 8.392C18.1097 8.592 18.0057 8.816 17.9257 9.064C17.8457 9.304 17.7857 9.556 17.7457 9.82C17.7057 10.076 17.6857 10.32 17.6857 10.552C17.6857 10.728 17.6977 10.916 17.7217 11.116C17.7457 11.308 17.7937 11.492 17.8657 11.668C17.9297 11.844 18.0297 11.988 18.1657 12.1C18.3017 12.212 18.4817 12.268 18.7057 12.268C18.9057 12.268 19.1177 12.224 19.3417 12.136C19.5577 12.04 19.7977 11.888 20.0617 11.68C20.3177 11.464 20.6097 11.176 20.9377 10.816C21.2577 10.448 21.6217 9.992 22.0297 9.448C22.3817 8.968 22.6897 8.56 22.9537 8.224C23.2257 7.88 23.4657 7.604 23.6737 7.396C23.8897 7.18 24.0897 7.024 24.2737 6.928C24.4577 6.824 24.6457 6.772 24.8377 6.772C24.9097 6.772 24.9537 6.82 24.9697 6.916C24.9937 7.004 24.9937 7.108 24.9697 7.228C24.9457 7.34 24.9017 7.444 24.8377 7.54C24.7817 7.628 24.7177 7.672 24.6457 7.672C24.5257 7.672 24.3817 7.756 24.2137 7.924C24.0537 8.092 23.8337 8.364 23.5537 8.74C23.2817 9.108 22.9137 9.604 22.4497 10.228C22.0337 10.788 21.6457 11.26 21.2857 11.644C20.9257 12.02 20.5897 12.324 20.2777 12.556C19.9577 12.78 19.6497 12.944 19.3537 13.048C19.0577 13.152 18.7657 13.204 18.4777 13.204ZM27.2377 13.204C26.9017 13.204 26.6337 13.12 26.4337 12.952C26.2337 12.776 26.0657 12.508 25.9297 12.148C25.7937 11.788 25.6537 11.332 25.5097 10.78L23.2657 12.88C23.1617 12.976 23.0577 13.044 22.9537 13.084C22.8497 13.124 22.7337 13.144 22.6057 13.144C22.4057 13.144 22.2617 13.08 22.1737 12.952C22.0937 12.824 22.1657 12.656 22.3897 12.448L25.2697 9.772C25.1657 9.356 25.0737 9.012 24.9937 8.74C24.9137 8.468 24.8337 8.256 24.7537 8.104C24.6817 7.944 24.5977 7.832 24.5017 7.768C24.4137 7.704 24.3097 7.672 24.1897 7.672C24.0617 7.672 23.9617 7.628 23.8897 7.54C23.8257 7.444 23.7977 7.34 23.8057 7.228C23.8217 7.108 23.8737 7.004 23.9617 6.916C24.0497 6.82 24.1777 6.772 24.3457 6.772C24.6017 6.772 24.8177 6.824 24.9937 6.928C25.1777 7.024 25.3337 7.168 25.4617 7.36C25.5897 7.552 25.7017 7.788 25.7977 8.068C25.9017 8.348 26.0017 8.664 26.0977 9.016L28.1857 7.072C28.2977 6.968 28.3977 6.892 28.4857 6.844C28.5737 6.796 28.6737 6.772 28.7857 6.772C28.9217 6.772 29.0337 6.804 29.1217 6.868C29.2177 6.924 29.2697 7 29.2777 7.096C29.2857 7.192 29.2257 7.304 29.0977 7.432L26.3377 10C26.4497 10.464 26.5457 10.848 26.6257 11.152C26.7057 11.448 26.7857 11.68 26.8657 11.848C26.9457 12.016 27.0337 12.132 27.1297 12.196C27.2257 12.26 27.3457 12.292 27.4897 12.292C27.6097 12.292 27.7457 12.236 27.8977 12.124C28.0497 12.004 28.2137 11.84 28.3897 11.632C28.4537 11.56 28.5177 11.516 28.5817 11.5C28.6457 11.484 28.7217 11.508 28.8097 11.572C28.9377 11.652 29.0137 11.736 29.0377 11.824C29.0697 11.904 29.0657 11.98 29.0257 12.052C28.9537 12.172 28.8297 12.324 28.6537 12.508C28.4857 12.692 28.2777 12.856 28.0297 13C27.7897 13.136 27.5257 13.204 27.2377 13.204ZM34.5298 19.228C34.2098 19.228 33.9258 19.16 33.6777 19.024C33.4378 18.896 33.2458 18.712 33.1018 18.472C32.9578 18.232 32.8857 17.956 32.8857 17.644C32.8857 17.492 32.9378 17.376 33.0418 17.296C33.1538 17.224 33.2818 17.184 33.4258 17.176C33.5778 17.168 33.7058 17.2 33.8098 17.272C33.9218 17.344 33.9778 17.456 33.9778 17.608C33.9778 17.816 34.0378 17.976 34.1578 18.088C34.2778 18.2 34.4258 18.256 34.6018 18.256C35.0178 18.256 35.4098 18.02 35.7778 17.548C36.1458 17.076 36.4778 16.392 36.7738 15.496L40.3138 4.624C40.5378 3.96 40.6458 3.424 40.6378 3.016C40.6298 2.608 40.5138 2.308 40.2898 2.116C40.0738 1.924 39.7538 1.828 39.3298 1.828C38.9458 1.828 38.5818 1.908 38.2378 2.068C37.9018 2.22 37.5898 2.44 37.3018 2.728C37.0218 3.008 36.7778 3.348 36.5698 3.748C36.3618 4.14 36.2018 4.58 36.0898 5.068C35.9778 5.556 35.9218 6.076 35.9218 6.628C35.9218 6.988 35.9418 7.352 35.9818 7.72C36.0298 8.08 36.0978 8.432 36.1858 8.776C36.2818 9.12 36.3938 9.444 36.5218 9.748C36.6578 10.052 36.8138 10.328 36.9898 10.576C37.0778 10.704 37.0938 10.824 37.0378 10.936C36.9818 11.048 36.9098 11.136 36.8218 11.2C36.6618 11.312 36.5338 11.364 36.4378 11.356C36.3418 11.348 36.2498 11.28 36.1618 11.152C35.9538 10.832 35.7658 10.492 35.5978 10.132C35.4298 9.764 35.2858 9.384 35.1658 8.992C35.0458 8.6 34.9578 8.208 34.9018 7.816C34.8458 7.424 34.8178 7.04 34.8178 6.664C34.8178 5.992 34.8938 5.364 35.0458 4.78C35.1978 4.188 35.4098 3.652 35.6818 3.172C35.9618 2.684 36.2938 2.268 36.6778 1.924C37.0618 1.572 37.4818 1.3 37.9378 1.108C38.3938 0.915999 38.8778 0.819999 39.3898 0.819999C40.0698 0.819999 40.6018 0.975999 40.9858 1.288C41.3698 1.592 41.5898 2.044 41.6458 2.644C41.7098 3.236 41.5978 3.98 41.3098 4.876L37.7578 15.772C37.5178 16.524 37.2298 17.156 36.8938 17.668C36.5578 18.18 36.1898 18.568 35.7898 18.832C35.3898 19.096 34.9698 19.228 34.5298 19.228ZM32.8707 17.644C32.8707 17.348 32.9387 17.048 33.0747 16.744C33.2107 16.44 33.4067 16.136 33.6628 15.832C33.9187 15.528 34.2347 15.22 34.6107 14.908C34.9867 14.604 35.4187 14.296 35.9067 13.984C36.3867 13.68 36.9187 13.376 37.5027 13.072C38.0147 12.8 38.4907 12.548 38.9307 12.316C39.3707 12.084 39.7707 11.86 40.1307 11.644C40.4907 11.42 40.8108 11.192 41.0908 10.96C41.3788 10.728 41.6308 10.484 41.8468 10.228C42.0628 9.964 42.2428 9.676 42.3868 9.364C42.4508 9.22 42.5388 9.152 42.6508 9.16C42.7628 9.16 42.8548 9.212 42.9268 9.316C43.0068 9.412 43.0148 9.536 42.9508 9.688C42.8068 10.04 42.6188 10.364 42.3868 10.66C42.1628 10.956 41.8988 11.236 41.5948 11.5C41.2908 11.764 40.9468 12.024 40.5627 12.28C40.1787 12.528 39.7587 12.78 39.3027 13.036C38.8387 13.3 38.3307 13.576 37.7787 13.864C37.1787 14.192 36.6467 14.516 36.1827 14.836C35.7107 15.156 35.3107 15.472 34.9827 15.784C34.6547 16.096 34.4067 16.404 34.2387 16.708C34.0627 17.012 33.9747 17.316 33.9747 17.62C33.9747 17.772 33.9187 17.884 33.8067 17.956C33.6947 18.036 33.5667 18.076 33.4227 18.076C33.2787 18.084 33.1507 18.052 33.0387 17.98C32.9267 17.908 32.8707 17.796 32.8707 17.644ZM43.7785 13.228C43.2825 13.228 42.8625 13.128 42.5185 12.928C42.1745 12.728 41.9145 12.452 41.7385 12.1C41.5705 11.74 41.4865 11.336 41.4865 10.888C41.4865 10.464 41.5625 10.016 41.7145 9.544C41.8665 9.064 42.0905 8.616 42.3865 8.2C42.6905 7.776 43.0665 7.432 43.5145 7.168C43.9705 6.904 44.4985 6.772 45.0985 6.772C45.5945 6.772 46.0105 6.868 46.3465 7.06C46.6905 7.244 46.9465 7.508 47.1145 7.852C47.2905 8.188 47.3785 8.58 47.3785 9.028C47.3785 9.348 47.3305 9.7 47.2345 10.084C47.1465 10.46 47.0065 10.836 46.8145 11.212C46.6305 11.58 46.3945 11.916 46.1065 12.22C45.8185 12.524 45.4785 12.768 45.0865 12.952C44.7025 13.136 44.2665 13.228 43.7785 13.228ZM43.8985 12.268C44.2905 12.268 44.6345 12.164 44.9305 11.956C45.2265 11.748 45.4745 11.484 45.6745 11.164C45.8745 10.836 46.0265 10.496 46.1305 10.144C46.2345 9.784 46.2865 9.452 46.2865 9.148C46.2865 8.836 46.2345 8.576 46.1305 8.368C46.0265 8.16 45.8785 8.004 45.6865 7.9C45.4945 7.788 45.2665 7.732 45.0025 7.732C44.6025 7.732 44.2505 7.836 43.9465 8.044C43.6425 8.244 43.3865 8.504 43.1785 8.824C42.9785 9.144 42.8265 9.48 42.7225 9.832C42.6185 10.184 42.5665 10.508 42.5665 10.804C42.5665 11.116 42.6185 11.384 42.7225 11.608C42.8345 11.824 42.9905 11.988 43.1905 12.1C43.3905 12.212 43.6265 12.268 43.8985 12.268ZM48.1772 9.652C47.9532 9.652 47.7572 9.616 47.5892 9.544C47.4132 9.472 47.2612 9.344 47.1332 9.16C46.9972 8.968 46.8732 8.692 46.7612 8.332C46.7372 8.228 46.7612 8.156 46.8332 8.116C46.9052 8.068 46.9852 8.048 47.0732 8.056C47.1612 8.056 47.2132 8.084 47.2292 8.14C47.3172 8.436 47.4532 8.628 47.6372 8.716C47.8212 8.804 48.0252 8.848 48.2492 8.848C48.5292 8.848 48.8292 8.748 49.1492 8.548C49.4772 8.348 49.8612 8 50.3012 7.504C50.4292 7.368 50.5372 7.332 50.6252 7.396C50.7132 7.452 50.7572 7.556 50.7572 7.708C50.7572 7.852 50.6932 7.996 50.5652 8.14C50.0452 8.724 49.5932 9.124 49.2092 9.34C48.8332 9.548 48.4892 9.652 48.1772 9.652ZM54.0455 13.204C53.6935 13.204 53.4295 13.136 53.2535 13C53.0855 12.872 52.9815 12.708 52.9415 12.508C52.9015 12.3 52.9015 12.084 52.9415 11.86C52.9815 11.628 53.0335 11.416 53.0975 11.224L53.9135 8.872C53.9855 8.664 54.0295 8.476 54.0455 8.308C54.0695 8.132 54.0415 7.992 53.9615 7.888C53.8895 7.784 53.7415 7.732 53.5175 7.732C53.2455 7.732 52.9415 7.852 52.6055 8.092C52.2775 8.332 51.9375 8.668 51.5855 9.1C51.2335 9.532 50.8855 10.044 50.5415 10.636C50.2055 11.22 49.8935 11.864 49.6055 12.568L49.5455 11.488C49.8495 10.744 50.1735 10.084 50.5175 9.508C50.8615 8.924 51.2215 8.428 51.5975 8.02C51.9735 7.612 52.3535 7.304 52.7375 7.096C53.1295 6.88 53.5215 6.772 53.9135 6.772C54.2815 6.772 54.5655 6.864 54.7655 7.048C54.9735 7.224 55.0855 7.488 55.1015 7.84C55.1255 8.192 55.0495 8.628 54.8735 9.148L54.1655 11.212C54.0215 11.628 53.9535 11.916 53.9615 12.076C53.9775 12.228 54.0815 12.304 54.2735 12.304C54.3855 12.304 54.4655 12.352 54.5135 12.448C54.5695 12.536 54.5895 12.64 54.5735 12.76C54.5655 12.872 54.5175 12.972 54.4295 13.06C54.3415 13.156 54.2135 13.204 54.0455 13.204ZM48.9455 13.18C48.8175 13.18 48.6975 13.152 48.5855 13.096C48.4735 13.04 48.4415 12.936 48.4895 12.784L51.5375 3.448C51.8335 2.512 52.1615 1.832 52.5215 1.408C52.8895 0.983999 53.3295 0.771999 53.8415 0.771999C54.1055 0.771999 54.3295 0.831999 54.5135 0.951999C54.7055 1.072 54.8535 1.24 54.9575 1.456C55.0695 1.664 55.1255 1.904 55.1255 2.176C55.1255 2.392 55.0935 2.624 55.0295 2.872C54.9655 3.112 54.8735 3.368 54.7535 3.64C54.6415 3.904 54.4975 4.184 54.3215 4.48C54.1535 4.768 53.9535 5.064 53.7215 5.368C53.4975 5.664 53.2495 5.968 52.9775 6.28C52.7055 6.584 52.4055 6.896 52.0775 7.216C51.7575 7.528 51.4135 7.844 51.0455 8.164L49.5095 12.868C49.4775 12.972 49.4215 13.048 49.3415 13.096C49.2615 13.152 49.1295 13.18 48.9455 13.18ZM51.4895 6.808C51.7455 6.544 51.9855 6.276 52.2095 6.004C52.4415 5.732 52.6535 5.46 52.8455 5.188C53.0455 4.916 53.2255 4.652 53.3855 4.396C53.5455 4.132 53.6775 3.876 53.7815 3.628C53.8935 3.38 53.9775 3.144 54.0335 2.92C54.0975 2.688 54.1295 2.472 54.1295 2.272C54.1295 2.16 54.1135 2.064 54.0815 1.984C54.0495 1.904 54.0015 1.844 53.9375 1.804C53.8735 1.756 53.7935 1.732 53.6975 1.732C53.5695 1.732 53.4455 1.788 53.3255 1.9C53.2055 2.004 53.0815 2.2 52.9535 2.488C52.8255 2.776 52.6735 3.188 52.4975 3.724L51.4895 6.808ZM54.0669 13.204C53.9389 13.204 53.8589 13.156 53.8269 13.06C53.7869 12.972 53.7869 12.872 53.8269 12.76C53.8589 12.64 53.9149 12.536 53.9949 12.448C54.0749 12.352 54.1629 12.304 54.2589 12.304C54.4029 12.304 54.5589 12.248 54.7269 12.136C54.8869 12.024 55.0549 11.86 55.2309 11.644C55.3989 11.428 55.5789 11.168 55.7709 10.864C55.9549 10.552 56.1469 10.2 56.3469 9.808C56.7069 9.12 57.0269 8.572 57.3069 8.164C57.5949 7.756 57.8589 7.452 58.0989 7.252C58.3389 7.052 58.5669 6.924 58.7829 6.868C59.0069 6.804 59.2309 6.772 59.4549 6.772C59.5349 6.772 59.5869 6.82 59.6109 6.916C59.6349 7.004 59.6309 7.108 59.5989 7.228C59.5669 7.34 59.5109 7.444 59.4309 7.54C59.3589 7.628 59.2629 7.672 59.1429 7.672C59.0549 7.672 58.9509 7.696 58.8309 7.744C58.7189 7.784 58.5869 7.88 58.4349 8.032C58.2909 8.176 58.1189 8.396 57.9189 8.692C57.7269 8.988 57.5029 9.384 57.2469 9.88C56.8709 10.632 56.5269 11.232 56.2149 11.68C55.9029 12.12 55.6189 12.452 55.3629 12.676C55.1069 12.892 54.8749 13.032 54.6669 13.096C54.4509 13.168 54.2509 13.204 54.0669 13.204ZM62.0949 13.204C61.7429 13.204 61.4789 13.136 61.3029 13C61.1349 12.872 61.0309 12.708 60.9909 12.508C60.9509 12.3 60.9509 12.084 60.9909 11.86C61.0309 11.628 61.0829 11.416 61.1469 11.224L61.9629 8.872C62.0349 8.664 62.0789 8.476 62.0949 8.308C62.1189 8.132 62.0909 7.992 62.0109 7.888C61.9389 7.784 61.7909 7.732 61.5669 7.732C61.3029 7.732 61.0069 7.848 60.6789 8.08C60.3589 8.312 60.0269 8.636 59.6829 9.052C59.3469 9.468 59.0109 9.964 58.6749 10.54C58.3389 11.108 58.0269 11.736 57.7389 12.424L57.5949 12.868C57.5629 12.972 57.5029 13.048 57.4149 13.096C57.3349 13.152 57.2029 13.18 57.0189 13.18C56.8909 13.18 56.7709 13.152 56.6589 13.096C56.5549 13.04 56.5269 12.936 56.5749 12.784L58.1349 7.96C58.1589 7.88 58.1549 7.812 58.1229 7.756C58.0989 7.7 58.0389 7.672 57.9429 7.672C57.8469 7.672 57.7789 7.628 57.7389 7.54C57.7069 7.444 57.7029 7.34 57.7269 7.228C57.7509 7.108 57.8069 7.004 57.8949 6.916C57.9829 6.82 58.0989 6.772 58.2429 6.772C58.5389 6.772 58.7549 6.828 58.8909 6.94C59.0349 7.044 59.1229 7.184 59.1549 7.36C59.1869 7.528 59.1869 7.708 59.1549 7.9C59.1229 8.092 59.0829 8.268 59.0349 8.428L58.7949 9.148C59.0429 8.764 59.2949 8.428 59.5509 8.14C59.8149 7.844 60.0789 7.596 60.3429 7.396C60.6069 7.188 60.8749 7.032 61.1469 6.928C61.4189 6.824 61.6909 6.772 61.9629 6.772C62.3309 6.772 62.6149 6.864 62.8149 7.048C63.0149 7.224 63.1269 7.488 63.1509 7.84C63.1749 8.192 63.0989 8.628 62.9229 9.148L62.2149 11.212C62.0709 11.628 62.0029 11.916 62.0109 12.076C62.0269 12.228 62.1309 12.304 62.3229 12.304C62.4349 12.304 62.5149 12.352 62.5629 12.448C62.6189 12.536 62.6389 12.64 62.6229 12.76C62.6149 12.872 62.5669 12.972 62.4789 13.06C62.3909 13.156 62.2629 13.204 62.0949 13.204ZM62.1057 13.204C61.9537 13.204 61.8537 13.156 61.8057 13.06C61.7497 12.972 61.7337 12.872 61.7577 12.76C61.7817 12.64 61.8417 12.536 61.9377 12.448C62.0337 12.352 62.1577 12.304 62.3097 12.304C62.5497 12.304 62.8097 12.212 63.0897 12.028C63.3617 11.844 63.6777 11.548 64.0377 11.14C64.3897 10.724 64.8057 10.176 65.2857 9.496C65.7657 8.808 66.3217 7.964 66.9537 6.964C67.0177 6.86 67.1057 6.82 67.2177 6.844C67.3377 6.868 67.4337 6.924 67.5057 7.012C67.5857 7.1 67.5937 7.196 67.5297 7.3C66.8977 8.404 66.3297 9.336 65.8257 10.096C65.3217 10.848 64.8617 11.452 64.4457 11.908C64.0297 12.364 63.6337 12.696 63.2577 12.904C62.8817 13.104 62.4977 13.204 62.1057 13.204ZM68.6937 13.204C68.5257 13.204 68.3577 13.192 68.1897 13.168C68.0217 13.144 67.8417 13.128 67.6497 13.12C67.4657 13.112 67.2537 13.132 67.0137 13.18L67.1577 12.904C67.4537 12.776 67.7177 12.668 67.9497 12.58C68.1817 12.492 68.3777 12.424 68.5377 12.376C68.7057 12.328 68.8297 12.304 68.9097 12.304C68.9817 12.304 69.0297 12.352 69.0537 12.448C69.0777 12.536 69.0777 12.64 69.0537 12.76C69.0377 12.872 68.9977 12.972 68.9337 13.06C68.8697 13.156 68.7897 13.204 68.6937 13.204ZM66.6897 13.228C66.2977 13.228 65.9417 13.168 65.6217 13.048C65.3097 12.928 65.0937 12.8 64.9737 12.664C64.8537 12.536 64.7977 12.428 64.8057 12.34C64.8137 12.244 64.8697 12.148 64.9737 12.052C65.0697 11.956 65.1537 11.912 65.2257 11.92C65.3057 11.928 65.4097 11.976 65.5377 12.064C65.6737 12.152 65.8337 12.232 66.0177 12.304C66.2097 12.368 66.4137 12.4 66.6297 12.4C67.0457 12.4 67.3697 12.3 67.6017 12.1C67.8337 11.9 67.9497 11.624 67.9497 11.272C67.9497 11.072 67.9177 10.872 67.8537 10.672C67.7897 10.464 67.7057 10.256 67.6017 10.048C67.4977 9.84 67.3897 9.628 67.2777 9.412C67.1657 9.196 67.0577 8.972 66.9537 8.74C66.8497 8.508 66.7657 8.268 66.7017 8.02C66.6377 7.764 66.6057 7.5 66.6057 7.228C66.6057 6.804 66.7017 6.504 66.8937 6.328C67.0937 6.144 67.3017 6.052 67.5177 6.052C67.7017 6.052 67.8417 6.104 67.9377 6.208C68.0417 6.304 68.0937 6.428 68.0937 6.58C68.0937 6.74 68.0297 6.912 67.9017 7.096C67.7817 7.28 67.6537 7.452 67.5177 7.612C67.5177 7.804 67.5537 7.996 67.6257 8.188C67.6977 8.372 67.7897 8.564 67.9017 8.764C68.0137 8.956 68.1297 9.152 68.2497 9.352C68.3777 9.552 68.4977 9.76 68.6097 9.976C68.7217 10.184 68.8137 10.4 68.8857 10.624C68.9577 10.84 68.9937 11.068 68.9937 11.308C68.9937 11.884 68.7857 12.348 68.3697 12.7C67.9617 13.052 67.4017 13.228 66.6897 13.228ZM68.6913 13.204C68.5793 13.204 68.4953 13.156 68.4393 13.06C68.3833 12.972 68.3633 12.872 68.3793 12.76C68.3873 12.64 68.4353 12.536 68.5233 12.448C68.6113 12.352 68.7393 12.304 68.9073 12.304C69.1153 12.304 69.3353 12.228 69.5673 12.076C69.7993 11.924 70.0393 11.712 70.2873 11.44C70.5273 11.168 70.7753 10.848 71.0313 10.48C71.2873 10.112 71.5473 9.712 71.8113 9.28C71.8753 9.176 71.9633 9.132 72.0753 9.148C72.1873 9.164 72.2793 9.216 72.3513 9.304C72.4233 9.384 72.4273 9.476 72.3633 9.58C72.0193 10.18 71.6913 10.708 71.3793 11.164C71.0753 11.62 70.7793 12 70.4913 12.304C70.1953 12.6 69.9033 12.824 69.6153 12.976C69.3193 13.128 69.0113 13.204 68.6913 13.204ZM73.7433 13.228C73.2473 13.228 72.8273 13.128 72.4833 12.928C72.1393 12.728 71.8793 12.452 71.7033 12.1C71.5353 11.74 71.4513 11.336 71.4513 10.888C71.4513 10.464 71.5273 10.016 71.6793 9.544C71.8313 9.064 72.0553 8.616 72.3513 8.2C72.6553 7.776 73.0313 7.432 73.4793 7.168C73.9353 6.904 74.4633 6.772 75.0633 6.772C75.5593 6.772 75.9753 6.868 76.3113 7.06C76.6553 7.244 76.9113 7.508 77.0793 7.852C77.2553 8.188 77.3433 8.58 77.3433 9.028C77.3433 9.348 77.2953 9.7 77.1993 10.084C77.1113 10.46 76.9713 10.836 76.7793 11.212C76.5953 11.58 76.3593 11.916 76.0713 12.22C75.7833 12.524 75.4433 12.768 75.0513 12.952C74.6673 13.136 74.2313 13.228 73.7433 13.228ZM73.8633 12.268C74.2553 12.268 74.5993 12.164 74.8953 11.956C75.1913 11.748 75.4393 11.484 75.6393 11.164C75.8393 10.836 75.9913 10.496 76.0953 10.144C76.1993 9.784 76.2513 9.452 76.2513 9.148C76.2513 8.836 76.1993 8.576 76.0953 8.368C75.9913 8.16 75.8433 8.004 75.6513 7.9C75.4593 7.788 75.2313 7.732 74.9673 7.732C74.5673 7.732 74.2153 7.836 73.9113 8.044C73.6073 8.244 73.3513 8.504 73.1433 8.824C72.9433 9.144 72.7913 9.48 72.6873 9.832C72.5833 10.184 72.5313 10.508 72.5313 10.804C72.5313 11.116 72.5833 11.384 72.6873 11.608C72.7993 11.824 72.9553 11.988 73.1553 12.1C73.3553 12.212 73.5913 12.268 73.8633 12.268ZM77.6741 8.44C77.5381 8.44 77.3741 8.416 77.1821 8.368C76.9901 8.32 76.8061 8.256 76.6301 8.176C76.4461 8.088 76.2941 8 76.1741 7.912C76.1021 7.856 76.0621 7.78 76.0541 7.684C76.0461 7.58 76.0621 7.484 76.1021 7.396C76.1421 7.3 76.2021 7.232 76.2821 7.192C76.3621 7.152 76.4501 7.164 76.5461 7.228C76.7781 7.38 76.9941 7.48 77.1941 7.528C77.3941 7.568 77.5781 7.588 77.7461 7.588C77.9861 7.588 78.2061 7.548 78.4061 7.468C78.6141 7.38 78.8101 7.284 78.9941 7.18C79.1781 7.076 79.3581 6.984 79.5341 6.904C79.7181 6.816 79.9021 6.772 80.0861 6.772C80.1901 6.772 80.2661 6.82 80.3141 6.916C80.3701 7.004 80.3901 7.108 80.3741 7.228C80.3661 7.34 80.3141 7.444 80.2181 7.54C80.1221 7.628 79.9781 7.672 79.7861 7.672C79.6661 7.672 79.5301 7.712 79.3781 7.792C79.2341 7.864 79.0741 7.952 78.8981 8.056C78.7301 8.16 78.5421 8.252 78.3341 8.332C78.1341 8.404 77.9141 8.44 77.6741 8.44ZM78.8743 13.18C78.7463 13.18 78.6263 13.152 78.5143 13.096C78.4103 13.04 78.3823 12.936 78.4303 12.784L79.9903 7.96C80.0143 7.88 80.0103 7.812 79.9783 7.756C79.9543 7.7 79.8943 7.672 79.7983 7.672C79.7023 7.672 79.6343 7.628 79.5943 7.54C79.5623 7.444 79.5583 7.34 79.5823 7.228C79.6063 7.108 79.6623 7.004 79.7503 6.916C79.8383 6.82 79.9543 6.772 80.0983 6.772C80.3943 6.772 80.6103 6.828 80.7463 6.94C80.8903 7.044 80.9783 7.184 81.0103 7.36C81.0423 7.528 81.0423 7.708 81.0103 7.9C80.9783 8.092 80.9383 8.268 80.8903 8.428L80.6503 9.148C80.8983 8.764 81.1503 8.428 81.4063 8.14C81.6703 7.844 81.9343 7.596 82.1983 7.396C82.4623 7.188 82.7303 7.032 83.0023 6.928C83.2743 6.824 83.5463 6.772 83.8183 6.772C84.1863 6.772 84.4703 6.864 84.6703 7.048C84.8703 7.224 84.9823 7.488 85.0063 7.84C85.0303 8.192 84.9543 8.628 84.7783 9.148L83.8783 11.752C83.8303 11.904 83.8023 12.016 83.7943 12.088C83.7943 12.16 83.8103 12.208 83.8423 12.232C83.8743 12.256 83.9103 12.268 83.9503 12.268C84.0303 12.268 84.1103 12.244 84.1903 12.196C84.2783 12.14 84.3703 12.064 84.4663 11.968C84.5703 11.864 84.6783 11.744 84.7903 11.608C84.8543 11.528 84.9183 11.484 84.9823 11.476C85.0463 11.46 85.1223 11.484 85.2103 11.548C85.3383 11.628 85.4143 11.708 85.4383 11.788C85.4703 11.868 85.4623 11.948 85.4143 12.028C85.3423 12.148 85.2263 12.3 85.0663 12.484C84.9143 12.668 84.7223 12.832 84.4903 12.976C84.2583 13.112 83.9983 13.18 83.7103 13.18C83.4143 13.18 83.1943 13.116 83.0503 12.988C82.9143 12.852 82.8343 12.684 82.8103 12.484C82.7863 12.284 82.7943 12.072 82.8343 11.848C82.8823 11.624 82.9383 11.416 83.0023 11.224L83.8183 8.872C83.8903 8.664 83.9343 8.476 83.9503 8.308C83.9743 8.132 83.9463 7.992 83.8663 7.888C83.7943 7.784 83.6463 7.732 83.4223 7.732C83.1583 7.732 82.8623 7.848 82.5343 8.08C82.2143 8.312 81.8823 8.636 81.5383 9.052C81.2023 9.468 80.8663 9.964 80.5303 10.54C80.1943 11.108 79.8823 11.736 79.5943 12.424L79.4503 12.868C79.4183 12.972 79.3583 13.048 79.2703 13.096C79.1903 13.152 79.0583 13.18 78.8743 13.18Z" fill="#2C7FFF"/>
</svg>
